<svg width="200" height="132" viewBox="0 0 200 132" fill="none" xmlns="http://www.w3.org/2000/svg">
<path d="M7.79947 83.1523C7.79947 92.2559 7.79947 101.36 7.79947 110.443C7.11719 110.681 2.65858 110.753 0.191265 110.578C-0.0110386 109.753 -0.0824331 72.6563 0.123837 71.1013C0.322174 71.0736 0.536364 71.014 0.754535 71.014C3.53125 71.0101 6.30797 71.0299 9.08468 71.0022C9.71143 70.9942 10.0248 71.2243 10.2668 71.7915C12.6825 77.4402 15.1221 83.0809 17.5537 88.7255C18.5295 90.9905 19.5053 93.2556 20.5605 95.711C22.6589 91.5023 24.6859 87.4363 26.7089 83.3704C28.7399 79.2887 30.7669 75.2069 32.8177 71.0735C35.2057 71.0735 37.6055 71.0735 40.0808 71.0735C40.053 71.2362 40.0609 71.3949 40.0014 71.5218C36.5742 78.8166 33.139 86.1075 29.7038 93.4023C27.7641 97.5277 25.8124 101.649 23.9005 105.786C23.5752 106.493 23.1746 106.739 22.3931 106.703C20.8461 106.627 19.2951 106.679 17.6806 106.679C14.4398 98.8011 11.2069 90.9469 7.974 83.0888C7.91847 83.1166 7.85897 83.1364 7.79947 83.1523Z" fill="#1F3C88"/>
<path d="M103.89 85.2749C103.89 79.6263 103.89 74.1641 103.89 68.6543C106.742 68.6543 109.526 68.6543 112.394 68.6543C112.394 82.6648 112.394 96.5841 112.394 110.575C109.59 110.575 106.801 110.575 103.91 110.575C103.91 109.004 103.91 107.477 103.91 105.95C103.85 105.93 103.791 105.91 103.731 105.89C103.414 106.291 103.092 106.687 102.779 107.088C100.764 109.647 98.0864 110.968 94.8773 110.956C89.0343 110.94 84.6947 108.171 82.6518 102.625C80.8946 97.8614 80.7478 92.9823 82.5725 88.1786C84.7344 82.4863 89.8554 79.1781 96.3291 80.142C99.1177 80.5585 101.355 81.8635 103.013 84.1524C103.255 84.4895 103.521 84.8069 103.89 85.2749ZM103.886 95.6678C103.874 95.6678 103.866 95.6678 103.854 95.6678C103.854 94.7118 103.814 93.7519 103.866 92.7959C103.91 91.9867 103.66 91.3004 103.203 90.6697C102.894 90.2453 102.577 89.8169 102.224 89.4281C99.0702 85.985 93.128 86.4134 90.9185 91.0109C89.911 93.1093 89.6531 95.287 90.0617 97.5639C90.383 99.3608 91.0534 100.995 92.3624 102.296C93.7428 103.669 95.4366 104.422 97.3803 104.172C100.082 103.827 102.232 102.506 103.541 100.039C103.747 99.6504 103.85 99.1744 103.87 98.7341C103.917 97.7186 103.886 96.6912 103.886 95.6678Z" fill="#1F3C88"/>
<path d="M149.416 74.8462C148.274 77.3611 147.195 79.7252 146.088 82.1648C145.473 81.8316 144.954 81.5539 144.438 81.2683C141.808 79.8244 139.019 78.805 136.06 78.3448C134.934 78.1703 133.751 78.1663 132.613 78.2853C131.931 78.3567 131.213 78.7018 130.638 79.1104C129.336 80.0307 129.095 81.8713 129.999 83.2874C130.681 84.3584 131.665 85.0843 132.823 85.5365C134.608 86.2307 136.421 86.8495 138.222 87.5001C139.65 88.0157 141.098 88.4838 142.51 89.0431C144.247 89.7333 145.838 90.6814 147.104 92.0777C149.349 94.5569 149.971 97.5478 149.559 100.753C148.897 105.922 145.683 108.889 140.892 110.352C138.4 111.114 135.834 111.269 133.24 111.078C127.893 110.69 123.065 108.916 118.793 105.66C118.535 105.461 118.289 105.243 117.98 104.985C119.082 102.629 120.173 100.309 121.32 97.8612C121.708 98.1666 122.069 98.4324 122.411 98.718C125.485 101.273 129.047 102.764 132.93 103.538C134.398 103.831 135.894 103.831 137.345 103.375C138.702 102.951 139.797 102.225 140.19 100.745C140.626 99.1107 139.872 97.2622 138.262 96.3538C137.203 95.7588 136.08 95.2511 134.93 94.8544C132.494 94.0174 129.995 93.3629 127.587 92.4624C126.306 91.9864 125.092 91.2447 123.958 90.4632C121.53 88.7932 120.455 86.3338 120.193 83.4659C119.749 78.6344 121.919 74.7192 126.235 72.486C128.269 71.4308 130.435 70.9032 132.692 70.7445C137.809 70.3796 142.696 71.2404 147.27 73.6403C147.968 73.9973 148.639 74.4059 149.416 74.8462Z" fill="#6DD5FA"/>
<path d="M169.861 110.94C160.674 110.872 154.268 103.803 154.244 95.3543C154.22 86.7901 161.273 79.8999 169.96 79.9515C178.302 80.003 185.494 86.4569 185.553 95.5249C185.605 103.546 179.25 110.896 169.861 110.94ZM169.631 102.752C173.451 102.836 177.175 99.9716 177.306 95.7946C177.429 91.9231 174.589 88.4323 170.261 88.234C166.199 88.0515 162.669 91.0147 162.495 95.2829C162.336 99.2298 165.6 102.641 169.631 102.752Z" fill="#6DD5FA"/>
<path d="M76.6977 97.6317C69.748 97.6317 62.9252 97.6317 56.1024 97.6317C56.0429 97.8023 55.9715 97.8975 55.9874 97.9729C56.5427 100.686 58.3397 103.471 61.6519 104.185C63.4409 104.57 65.1307 104.161 66.7809 103.538C68.1177 103.034 69.3315 102.301 70.4263 101.241C71.9099 102.82 73.3379 104.339 74.7937 105.89C73.6433 107.219 72.3938 108.263 70.9301 108.957C64.9364 111.801 59.0101 111.86 53.2821 108.247C51.2114 106.942 49.7398 105.038 48.8671 102.781C46.9234 97.7666 46.7489 92.7011 49.1011 87.7704C51.2233 83.3197 54.8648 80.8643 59.7399 80.1662C62.1358 79.825 64.4881 79.9559 66.8087 80.5628C70.4144 81.5069 73.1515 83.5617 74.8135 86.9612C76.4478 90.2893 76.789 93.8356 76.6977 97.6317ZM68.4747 93.185C68.3993 92.4908 68.3755 91.8284 68.2486 91.1897C68.1415 90.6423 67.963 90.1028 67.7488 89.5872C66.5984 86.7668 63.425 85.4142 60.5253 86.3582C57.7883 87.2468 56.0707 90.321 55.8644 93.189C60.0176 93.185 64.1708 93.185 68.4747 93.185Z" fill="#1F3C88"/>
<path d="M191.571 68.5586C194.395 68.5586 197.16 68.5586 200 68.5586C200 82.5612 200 96.5122 200 110.507C197.168 110.507 194.403 110.507 191.571 110.507C191.571 96.5281 191.571 82.5691 191.571 68.5586Z" fill="#6DD5FA"/>
<path d="M110.832 32.2078C111.117 32.065 111.431 31.9023 111.752 31.7476C116.187 29.6215 120.618 27.4794 125.064 25.3771C126.441 24.7265 127.785 24.9843 129.003 25.8372C130.721 27.0391 131.026 29.8039 129.067 31.1526C123.355 35.0837 117.734 39.1575 111.764 42.6958C109.891 43.8065 107.94 44.7784 105.992 45.7502C104.584 46.4523 103.073 46.8133 101.482 46.6348C98.4633 46.2976 95.4406 46.0001 92.4338 45.5797C88.5861 45.0441 84.7463 44.8101 80.8787 45.2861C80.1965 45.3694 79.5221 45.4884 78.7763 45.6035C78.7486 46.369 78.7407 47.087 78.697 47.805C78.6494 48.5785 78.5622 48.6856 77.8283 48.6896C75.3174 48.7054 72.8064 48.7015 70.2955 48.6975C70.1685 48.6975 70.0416 48.6499 69.8036 48.6063C69.7679 48.2691 69.7004 47.924 69.7004 47.5749C69.6925 40.8672 69.6846 34.1634 69.6886 27.4556C69.6886 26.4362 69.7679 26.3568 70.7397 26.3568C73.0206 26.3529 75.2975 26.3568 77.5784 26.3687C78.6256 26.3767 78.6732 26.4401 78.7089 27.5072C78.7287 28.1022 78.7407 28.6972 78.7605 29.2883C78.7645 29.3517 78.7962 29.4152 78.8557 29.5937C79.1175 29.5223 79.3793 29.443 79.6451 29.3795C81.7276 28.8757 83.7943 28.2728 85.9006 27.8999C88.3798 27.4596 90.8352 27.8999 93.247 28.5346C94.3974 28.836 95.5279 29.2208 96.6941 29.435C97.8246 29.6413 98.9829 29.7682 100.129 29.7722C102.374 29.7762 104.62 29.6651 106.865 29.6175C108.904 29.5699 109.792 30.1451 110.625 32.0094C110.653 32.065 110.72 32.1007 110.832 32.2078ZM78.7169 44.0802C79.058 44.0802 79.2881 44.1159 79.5062 44.0763C83.9212 43.2591 88.3203 43.5685 92.7234 44.223C95.401 44.6197 98.0944 44.9013 100.78 45.2623C102.589 45.5043 104.239 45.06 105.853 44.2825C108.658 42.9299 111.347 41.3789 113.938 39.6613C117.956 36.9956 121.942 34.2745 125.933 31.5691C126.754 31.0138 127.547 30.4227 128.353 29.8396C128.892 29.4509 129.059 28.8995 128.964 28.2648C128.817 27.289 128.011 26.5393 127.016 26.4282C126.334 26.3529 125.719 26.5393 125.108 26.8368C120.439 29.0899 115.758 31.3272 111.089 33.5882C110.756 33.7508 110.451 34.0444 110.229 34.3459C109.487 35.3415 108.511 35.877 107.281 35.9286C102.593 36.1309 97.904 36.3213 93.2153 36.5196C93.0844 36.5236 92.9495 36.5315 92.8186 36.5355C92.3624 36.5553 92.1244 36.2777 92.1086 35.881C92.0927 35.4922 92.2712 35.1709 92.7432 35.159C93.009 35.1551 93.2708 35.1392 93.5366 35.1273C98.0269 34.9409 102.517 34.7663 107.004 34.5521C107.476 34.5283 107.983 34.3617 108.396 34.1237C109.082 33.731 109.368 32.9496 109.154 32.2435C108.943 31.5453 108.408 31.1685 107.718 31.0297C107.428 30.9702 107.127 30.9821 106.829 30.99C104.981 31.0257 103.124 30.9979 101.28 31.1209C98.9671 31.2756 96.7417 30.9662 94.5362 30.2879C92.6084 29.6968 90.6488 29.2288 88.6099 29.1851C85.2104 29.1098 82.0053 29.9626 78.8636 31.1566C78.8121 31.1764 78.7843 31.2558 78.7525 31.2915C78.6692 32.0372 78.9152 32.8187 78.4511 33.4811C77.4038 33.4771 77.3404 33.4375 77.3285 32.545C77.3126 31.2875 77.3245 30.034 77.3245 28.7765C77.3245 28.4552 77.3245 28.1379 77.3245 27.7531C76.5946 27.7531 75.9877 27.7531 75.3888 27.7531C75.1151 28.8916 75.1389 46.4246 75.3967 47.2139C76.0115 47.2139 76.6185 47.2139 77.3087 47.2139C77.3087 46.8054 77.3087 46.4801 77.3087 46.1548C77.3087 45.0957 77.3087 44.0406 77.3087 42.9814C77.3087 42.7157 77.3245 42.4539 77.3285 42.1881C77.3404 41.7399 77.6062 41.5177 78.0187 41.5058C78.455 41.4939 78.6891 41.7756 78.701 42.1921C78.7327 42.8148 78.7169 43.4336 78.7169 44.0802ZM73.7148 47.2576C73.7148 40.7006 73.7148 34.2427 73.7148 27.773C72.8302 27.773 72.021 27.773 71.2277 27.773C71.0095 29.1137 71.0611 46.5198 71.2832 47.2576C72.0527 47.2576 72.8342 47.2576 73.7148 47.2576Z" fill="#1F3C88"/>
<path d="M40.9814 110.615C38.4467 110.615 36.0111 110.615 33.5041 110.615C33.4684 110.345 33.4089 110.095 33.4089 109.845C33.3693 104.526 33.3296 99.2062 33.3137 93.8868C33.3137 93.4743 33.4367 93.0339 33.6112 92.6531C34.6505 90.3643 35.8009 88.135 37.3638 86.1437C38.4626 84.7435 39.8509 83.4463 40.8981 82.8672C40.9259 82.8831 40.9616 82.895 40.9854 82.9148C41.0092 82.9346 41.0409 82.9664 41.0409 82.9902C41.0528 91.9748 41.0608 100.959 41.0687 109.944C41.0647 110.135 41.0171 110.325 40.9814 110.615Z" fill="#1F3C88"/>
<path d="M112.105 12.8699C112.105 16.0394 112.105 19.2128 112.105 22.3822C112.105 23.8499 111.276 24.7265 109.808 24.8138C109.511 24.8297 109.213 24.8059 108.916 24.8059C102.803 24.8098 96.6862 24.8138 90.5735 24.8217C88.8797 24.8217 87.9951 23.9768 87.9951 22.2751C87.9792 15.8966 87.9752 9.51805 87.9792 3.13953C87.9792 1.4378 88.8638 0.620653 90.5735 0.62462C96.587 0.632553 102.605 0.62462 108.618 0.62462C108.983 0.62462 109.344 0.616686 109.709 0.62462C111.153 0.652387 112.105 1.6044 112.121 3.06019C112.137 4.38112 112.113 5.70205 112.113 7.02297C112.109 8.97461 112.113 10.9223 112.113 12.8739C112.109 12.8699 112.109 12.8699 112.105 12.8699ZM89.3517 12.7589C89.3557 15.9005 89.3477 19.0382 89.3596 22.1799C89.3636 23.1438 89.6651 23.4373 90.5893 23.4413C96.8369 23.4453 103.081 23.4413 109.328 23.4373C109.427 23.4373 109.527 23.4453 109.626 23.4373C110.367 23.3937 110.637 23.1597 110.713 22.4338C110.76 21.9736 110.764 21.5095 110.764 21.0494C110.768 16.4241 110.768 11.795 110.768 7.16974C110.768 5.88055 110.776 4.59136 110.756 3.30217C110.744 2.35808 110.459 2.08834 109.503 2.04471C109.304 2.03677 109.106 2.03678 108.908 2.03678C102.993 2.03678 97.075 2.03281 91.1605 2.03678C90.863 2.03678 90.5457 1.98521 90.2759 2.07248C89.9864 2.16768 89.6492 2.34222 89.5025 2.58419C89.3478 2.83806 89.3596 3.2149 89.3596 3.54018C89.3477 6.61043 89.3517 9.68465 89.3517 12.7589Z" fill="#1F3C88"/>
<path d="M66.5827 128.917C66.2296 128.941 65.9797 128.961 65.71 128.976C65.6584 128.814 65.587 128.695 65.583 128.572C65.5632 127.846 65.5593 127.12 65.5553 126.394C65.5513 125.997 65.5672 125.601 65.5513 125.208C65.5077 124.304 65.0912 123.804 64.3772 123.768C63.5997 123.728 62.9809 124.296 62.9174 125.196C62.8619 125.954 62.8896 126.715 62.8817 127.473C62.8777 127.929 62.8817 128.385 62.8817 128.913C62.5247 128.913 62.255 128.913 61.8742 128.913C61.8742 127.913 61.8742 126.961 61.8742 126.013C61.8742 125.684 61.8861 125.351 61.8623 125.022C61.8028 124.216 61.3426 123.748 60.6365 123.756C59.9146 123.764 59.272 124.304 59.2402 125.022C59.2045 125.91 59.2363 126.803 59.2402 127.695C59.2402 128.084 59.2402 128.473 59.2402 128.905C58.8793 128.937 58.6254 128.957 58.4033 128.976C58.3279 128.889 58.2525 128.838 58.2525 128.786C58.2446 126.942 58.2485 125.097 58.2485 123.197C58.7127 122.88 59.0617 123.133 59.3751 123.562C60.4977 122.856 61.5846 122.61 62.5366 123.776C62.9095 123.558 63.2308 123.324 63.5878 123.173C65.1348 122.515 66.5192 123.368 66.5787 125.038C66.6144 126.307 66.5827 127.588 66.5827 128.917Z" fill="#6DD5FA"/>
<path d="M25.4357 128.548C25.4357 129.139 25.4436 129.559 25.4317 129.984C25.4198 130.376 25.3881 130.769 25.3603 131.225C25.0509 131.225 24.7811 131.225 24.436 131.225C24.436 128.5 24.436 125.846 24.436 123.177C24.9239 122.847 25.2611 123.264 25.638 123.47C25.8046 123.387 25.9474 123.304 26.0981 123.24C27.4428 122.661 28.8312 123.264 29.2556 124.672C29.5254 125.569 29.5293 126.505 29.2556 127.405C28.8233 128.817 27.6055 129.389 26.2131 128.869C25.995 128.79 25.7927 128.698 25.4357 128.548ZM25.4555 125.946C25.4436 125.946 25.4356 125.946 25.4237 125.946C25.4436 126.338 25.4476 126.735 25.4833 127.128C25.5309 127.695 25.9156 128.004 26.4035 128.171C26.9391 128.353 27.4508 128.262 27.8514 127.83C28.5733 127.056 28.5694 125.001 27.8474 124.228C27.4468 123.799 26.8319 123.633 26.3202 123.851C25.8006 124.073 25.4674 124.458 25.4595 125.057C25.4515 125.354 25.4555 125.652 25.4555 125.946Z" fill="#6DD5FA"/>
<path d="M56.2017 123.205C55.92 123.241 55.6701 123.276 55.4083 123.308C55.2258 122.991 55.091 122.689 54.8966 122.427C54.2461 121.543 52.826 121.499 52.112 122.32C51.6756 122.824 51.6835 123.383 52.223 123.78C52.5879 124.05 53.0283 124.216 53.4448 124.411C54.0993 124.72 54.8173 124.93 55.4043 125.331C56.6935 126.216 56.5626 127.929 55.1663 128.643C53.9327 129.274 52.6713 129.219 51.4812 128.501C50.8466 128.12 50.5649 127.497 50.4539 126.668C50.8069 126.636 51.1084 126.608 51.386 126.581C52.0524 127.965 52.6673 128.346 53.9327 128.207C54.5872 128.136 55.0315 127.771 55.1386 127.215C55.2536 126.612 55.0354 126.14 54.4246 125.839C53.9525 125.605 53.4448 125.446 52.9569 125.248C52.5602 125.085 52.1476 124.95 51.7827 124.732C50.4062 123.911 50.3983 122.182 51.7549 121.325C52.7347 120.706 54.4087 120.765 55.321 121.483C55.8526 121.904 56.2334 122.42 56.2017 123.205Z" fill="#6DD5FA"/>
<path d="M10.6476 126.572C11.3101 127.973 11.9051 128.333 13.1665 128.211C13.8409 128.143 14.2693 127.814 14.3962 127.259C14.5509 126.584 14.3526 126.152 13.6584 125.83C13.0911 125.569 12.4882 125.382 11.913 125.144C11.5481 124.993 11.1752 124.843 10.8499 124.629C9.96138 124.049 9.49331 122.395 10.8539 121.443C11.9051 120.709 13.6663 120.741 14.6659 121.55C15.2054 121.987 15.3641 122.344 15.3799 123.181C15.2927 123.208 15.2054 123.256 15.1102 123.264C14.9476 123.28 14.7849 123.268 14.5866 123.268C14.5271 123.149 14.4716 123.038 14.42 122.923C13.9599 121.868 12.9404 121.451 11.9051 121.919C11.4608 122.122 11.1395 122.447 11.1078 122.963C11.076 123.45 11.3418 123.776 11.7544 123.986C12.0757 124.149 12.4168 124.272 12.75 124.418C13.353 124.68 13.9797 124.902 14.5509 125.22C15.2371 125.6 15.5902 126.227 15.5426 127.024C15.495 127.826 15.0428 128.365 14.3327 128.698C13.3569 129.159 12.3494 129.155 11.3458 128.817C10.3819 128.492 9.83842 127.802 9.72339 126.667C10.0328 126.636 10.3342 126.604 10.6476 126.572Z" fill="#6DD5FA"/>
<path d="M31.5049 123.031C31.9135 123.162 32.2586 123.277 32.7147 123.423C32.7663 123.4 32.9448 123.32 33.1273 123.245C34.5196 122.65 35.8088 123.213 36.2769 124.657C36.6141 125.696 36.5585 126.751 36.1539 127.759C35.7176 128.846 34.5275 129.314 33.3415 128.913C33.0717 128.822 32.8099 128.699 32.4648 128.556C32.4648 129.068 32.4648 129.493 32.4648 129.917C32.4648 130.31 32.4648 130.706 32.4648 131.194C32.1435 131.23 31.8738 131.262 31.5049 131.305C31.5049 128.533 31.5049 125.855 31.5049 123.031ZM32.4847 125.938C32.4886 125.938 32.4886 125.938 32.4847 125.938C32.4886 126.268 32.4767 126.597 32.4926 126.922C32.5243 127.505 32.9646 128.053 33.52 128.215C34.0515 128.37 34.6624 128.156 35.0075 127.696C35.5827 126.922 35.551 125.089 34.948 124.316C34.5712 123.832 33.9841 123.618 33.4645 123.82C32.9091 124.034 32.5164 124.411 32.4886 125.054C32.4728 125.347 32.4847 125.645 32.4847 125.938Z" fill="#6DD5FA"/>
<path d="M110.602 123.475C110.312 123.499 110.034 123.522 109.753 123.546C109.642 123.284 109.562 123.074 109.463 122.868C109.134 122.197 108.638 121.769 107.845 121.777C107.008 121.785 106.369 122.126 106.028 122.9C105.441 124.228 105.453 125.601 105.909 126.95C106.171 127.719 106.754 128.191 107.619 128.223C108.511 128.255 109.134 127.854 109.503 127.053C109.586 126.874 109.654 126.692 109.749 126.458C110.019 126.458 110.292 126.458 110.574 126.458C110.407 127.969 109.669 128.79 108.337 128.996C106.786 129.238 105.548 128.695 105.028 127.453C104.382 125.902 104.31 124.304 104.941 122.729C105.687 120.861 108.079 120.266 109.65 121.531C110.245 122.011 110.582 122.626 110.602 123.475Z" fill="#6DD5FA"/>
<path d="M165.711 129.099C165.263 128.953 164.886 128.826 164.355 128.651C163.891 128.969 163.208 129.127 162.467 129.036C161.725 128.945 161.273 128.524 161.043 127.842C160.809 127.152 160.967 126.541 161.499 126.037C161.947 125.613 162.494 125.41 163.109 125.387C163.565 125.367 164.022 125.347 164.462 125.327C164.613 124.542 164.498 124.189 164.038 123.935C163.546 123.661 162.867 123.725 162.387 124.165C162.003 124.518 161.661 124.839 161.118 124.502C161.745 122.923 163.887 122.447 165.073 123.614C165.509 124.042 165.604 124.577 165.616 125.149C165.64 126.394 165.676 127.636 165.711 129.099ZM164.518 126.184C163.835 126.021 163.232 126.12 162.649 126.355C162.221 126.525 161.939 126.838 162.003 127.338C162.058 127.779 162.459 128.136 162.947 128.207C164.081 128.37 164.692 127.624 164.518 126.184Z" fill="#6DD5FA"/>
<path d="M73.3656 129.076C72.949 128.917 72.5801 128.774 72.3818 128.695C71.5845 128.822 70.9181 129.012 70.2556 129.012C69.5297 129.012 68.895 128.425 68.7562 127.779C68.6015 127.049 68.7165 126.347 69.3948 125.946C69.859 125.668 70.4103 125.51 70.9458 125.395C71.3504 125.307 71.7868 125.379 72.2192 125.379C72.4254 124.78 72.3778 124.336 71.8899 124.006C71.3742 123.657 70.6801 123.689 70.1564 124.169C69.7637 124.526 69.4067 124.819 68.8553 124.542C69.26 123.348 70.1644 122.84 71.5567 123.023C72.711 123.173 73.3378 123.875 73.3656 125.109C73.3854 126.355 73.3656 127.604 73.3656 129.076ZM72.3501 126.184C71.5845 126.013 70.9577 126.093 70.4024 126.359C70.1247 126.489 69.8232 126.866 69.7994 127.152C69.7756 127.438 70.0137 127.846 70.2636 128.033C70.9855 128.568 72.0882 128.112 72.2826 127.231C72.35 126.918 72.3263 126.589 72.3501 126.184Z" fill="#6DD5FA"/>
<path d="M89.6452 126.279C88.3322 126.279 87.0669 126.279 85.7737 126.279C85.7221 127.219 86.0752 127.814 86.805 128.127C87.6738 128.496 88.4076 128.167 89.0304 127.473C89.2129 127.624 89.3557 127.746 89.4826 127.85C88.9828 129.452 86.1188 129.361 85.2263 128.024C84.4528 126.866 84.421 125.168 85.2461 124.022C85.861 123.169 86.8527 122.812 87.8642 123.082C88.8876 123.355 89.6333 124.244 89.6928 125.295C89.7087 125.581 89.6651 125.87 89.6452 126.279ZM88.5584 125.386C88.5227 124.287 88.0704 123.752 87.2335 123.752C86.4837 123.752 85.9403 124.379 85.853 125.386C86.7575 125.386 87.6539 125.386 88.5584 125.386Z" fill="#6DD5FA"/>
<path d="M137.865 127.425C138.067 127.608 138.234 127.759 138.42 127.929C137.77 128.984 136.814 129.179 135.735 129.004C134.739 128.846 134.049 128.274 133.748 127.295C133.482 126.422 133.45 125.529 133.787 124.669C134.505 122.848 136.766 122.4 137.976 123.824C138.4 124.327 138.567 124.99 138.531 126.216C137.901 126.235 137.262 126.259 136.619 126.271C135.969 126.279 135.318 126.275 134.592 126.275C134.644 127.187 134.961 127.802 135.683 128.128C136.572 128.524 137.282 128.167 137.865 127.425ZM137.476 125.39C137.401 124.308 136.992 123.8 136.227 123.76C135.449 123.717 134.902 124.288 134.703 125.39C135.608 125.39 136.504 125.39 137.476 125.39Z" fill="#6DD5FA"/>
<path d="M183.629 126.267C182.28 126.267 181.011 126.267 179.682 126.267C179.686 127.143 179.976 127.734 180.646 128.072C181.539 128.524 182.304 128.234 182.907 127.516C183.427 127.727 183.526 127.961 183.173 128.345C182.158 129.464 179.869 129.258 179.115 127.901C178.433 126.675 178.369 125.374 179.163 124.141C179.797 123.153 180.797 122.796 181.916 123.105C182.899 123.375 183.534 124.18 183.621 125.291C183.645 125.553 183.629 125.815 183.629 126.267ZM179.845 125.382C180.749 125.382 181.646 125.382 182.546 125.382C182.534 124.375 182.102 123.815 181.328 123.764C180.507 123.708 179.928 124.319 179.845 125.382Z" fill="#6DD5FA"/>
<path d="M155.561 128.944C155.144 128.944 154.862 128.944 154.505 128.944C154.505 126.322 154.505 123.736 154.505 121.074C156.128 121.074 157.722 121.074 159.357 121.074C159.357 121.34 159.357 121.522 159.357 121.824C158.139 121.824 156.933 121.824 155.644 121.824C155.644 122.768 155.644 123.597 155.644 124.541C156.703 124.541 157.711 124.541 158.734 124.541C158.893 125.108 158.841 125.41 158.258 125.406C157.405 125.398 156.548 125.402 155.561 125.402C155.561 126.62 155.561 127.758 155.561 128.944Z" fill="#6DD5FA"/>
<path d="M112.446 126.085C112.462 123.772 114.076 122.511 115.996 123.129C116.798 123.387 117.353 123.915 117.631 124.724C117.884 125.462 117.916 126.215 117.746 126.969C117.452 128.266 116.48 129.056 115.223 129.06C113.878 129.064 112.894 128.286 112.593 126.969C112.51 126.62 112.474 126.259 112.446 126.085ZM113.438 126.025C113.569 126.525 113.624 127.029 113.834 127.461C114.346 128.508 115.842 128.603 116.437 127.616C117.016 126.652 117.055 125.589 116.504 124.597C115.901 123.514 114.465 123.522 113.858 124.609C113.628 125.021 113.577 125.537 113.438 126.025Z" fill="#6DD5FA"/>
<path d="M45.3128 123.125C45.6302 123.125 45.9158 123.125 46.2847 123.125C46.2212 123.367 46.1815 123.578 46.1141 123.776C45.4279 125.74 44.7416 127.699 44.0474 129.659C43.7459 130.508 43.2818 131.206 42.306 131.36C41.8221 131.436 41.5166 131.293 41.6396 130.658C42.187 130.5 42.8138 130.408 43.0914 129.718C43.2858 129.234 43.385 128.81 43.1866 128.298C42.6115 126.787 42.076 125.26 41.5246 123.74C41.4611 123.566 41.4214 123.379 41.3699 123.193C42.3774 123.022 42.3933 123.018 42.6591 123.8C42.9248 124.581 43.143 125.379 43.3929 126.16C43.504 126.501 43.6468 126.826 43.8531 127.358C44.5671 125.894 44.7099 124.438 45.3128 123.125Z" fill="#6DD5FA"/>
<path d="M124.553 128.924C124.223 128.924 123.946 128.924 123.529 128.924C123.529 127.984 123.529 127.072 123.529 126.156C123.529 125.826 123.533 125.497 123.525 125.168C123.505 124.275 123.16 123.835 122.454 123.792C121.653 123.74 120.955 124.315 120.911 125.12C120.867 125.91 120.891 126.703 120.887 127.496C120.883 127.953 120.887 128.409 120.887 128.917C120.546 128.944 120.3 128.968 119.951 128.996C119.951 127.013 119.951 125.089 119.951 123.161C120.538 123.093 120.538 123.093 121.01 123.526C121.435 123.359 121.847 123.133 122.284 123.034C123.489 122.76 124.489 123.49 124.541 124.728C124.596 126.104 124.553 127.489 124.553 128.924Z" fill="#6DD5FA"/>
<path d="M126.877 123.149C127.401 122.943 127.73 123.165 127.94 123.621C128.206 123.478 128.404 123.367 128.606 123.264C130.031 122.542 131.355 123.204 131.466 124.783C131.562 126.128 131.486 127.481 131.486 128.897C131.185 128.897 130.911 128.897 130.51 128.897C130.51 127.921 130.51 126.973 130.51 126.021C130.51 125.723 130.514 125.426 130.499 125.128C130.455 124.283 130.05 123.795 129.376 123.76C128.642 123.72 127.896 124.375 127.861 125.152C127.825 125.941 127.853 126.735 127.849 127.528C127.849 127.98 127.849 128.437 127.849 128.936C127.46 128.936 127.21 128.936 126.877 128.936C126.877 127.012 126.877 125.116 126.877 123.149Z" fill="#6DD5FA"/>
<path d="M21.1199 123.117C21.5205 123.117 21.7744 123.117 22.0996 123.117C22.0996 125.045 22.0996 126.941 22.0996 128.873C21.6117 129.17 21.2547 128.917 20.9136 128.512C20.4019 129.036 19.787 129.107 19.1484 129.032C18.2717 128.928 17.6133 128.389 17.5657 127.524C17.4863 126.084 17.5458 124.64 17.5458 123.141C17.8235 123.141 18.1012 123.141 18.4384 123.141C18.4384 123.915 18.4384 124.632 18.4384 125.354C18.4384 125.882 18.4185 126.414 18.4463 126.937C18.4979 127.826 18.8707 128.218 19.6204 128.226C20.5288 128.234 21.0881 127.762 21.108 126.882C21.1437 125.664 21.1199 124.446 21.1199 123.117Z" fill="#6DD5FA"/>
<path d="M167.754 127.216C168.286 127.025 168.576 127.124 168.853 127.604C169.242 128.279 169.96 128.489 170.658 128.195C170.952 128.072 171.257 127.767 171.364 127.473C171.503 127.093 171.194 126.791 170.837 126.636C170.507 126.49 170.158 126.383 169.817 126.264C169.504 126.156 169.174 126.097 168.877 125.962C167.735 125.446 167.592 124.237 168.572 123.439C169.785 122.452 171.741 123.003 172.32 124.554C172.098 124.645 171.872 124.74 171.63 124.843C171.436 124.594 171.289 124.379 171.114 124.189C170.745 123.776 170.265 123.709 169.754 123.82C169.325 123.915 169.048 124.209 168.996 124.633C168.94 125.066 169.262 125.284 169.627 125.407C170.186 125.597 170.765 125.736 171.32 125.938C171.908 126.153 172.38 126.517 172.411 127.204C172.443 127.89 172.094 128.398 171.531 128.759C170.154 129.631 168.187 128.85 167.754 127.216Z" fill="#6DD5FA"/>
<path d="M145.227 127.215C144.934 128.283 144.299 128.889 143.287 129.02C142.236 129.155 141.296 128.905 140.721 127.918C140.019 126.716 139.991 125.458 140.602 124.217C141.054 123.296 142.062 122.84 143.101 122.999C144.279 123.181 144.953 123.812 145.164 124.978C144.906 125.002 144.656 125.026 144.382 125.05C144.255 124.827 144.16 124.617 144.025 124.439C143.26 123.403 142.026 123.515 141.514 124.701C141.133 125.581 141.137 126.521 141.53 127.398C141.994 128.441 143.379 128.536 144.041 127.608C144.438 127.065 144.438 127.065 145.227 127.215Z" fill="#6DD5FA"/>
<path d="M149.555 128.29C149.741 128.849 149.535 129.067 149.016 129.083C148.099 129.107 147.532 128.607 147.488 127.659C147.449 126.802 147.465 125.946 147.457 125.085C147.453 124.728 147.457 124.371 147.457 123.966C147.163 123.907 146.929 123.899 146.739 123.808C146.588 123.736 146.489 123.566 146.366 123.439C146.493 123.32 146.608 123.165 146.758 123.094C146.929 123.018 147.135 123.018 147.357 122.982C147.409 122.534 147.457 122.114 147.512 121.634C147.814 121.634 148.087 121.634 148.393 121.634C148.448 122.094 148.496 122.51 148.551 122.979C148.889 123.034 149.202 123.09 149.511 123.141C149.599 123.736 149.599 123.736 148.488 123.927C148.488 125.113 148.472 126.322 148.496 127.536C148.496 128.23 149.138 128.151 149.555 128.29Z" fill="#6DD5FA"/>
<path d="M174.855 124.062C174.454 123.665 173.724 124.058 173.732 123.221C174.046 123.138 174.375 123.051 174.76 122.951C174.807 122.571 174.855 122.182 174.914 121.686C175.152 121.658 175.418 121.63 175.72 121.595C175.787 122.102 175.843 122.519 175.906 122.975C176.255 123.031 176.568 123.078 176.874 123.126C176.914 123.757 176.914 123.757 175.823 123.951C175.823 125.133 175.815 126.343 175.827 127.553C175.831 127.942 176.108 128.14 176.469 128.183C176.814 128.223 177.056 128.338 176.985 128.731C176.914 129.135 176.576 129.104 176.287 129.096C175.347 129.072 174.926 128.667 174.883 127.684C174.843 126.763 174.859 125.839 174.851 124.919C174.855 124.598 174.855 124.276 174.855 124.062Z" fill="#6DD5FA"/>
<path d="M81.9459 122.998C82.2077 123.03 82.3823 123.01 82.5251 123.073C82.7076 123.153 82.9733 123.272 83.0011 123.415C83.0685 123.783 82.7512 123.795 82.4815 123.815C82.3188 123.827 82.1602 123.851 81.8865 123.883C81.8865 125.128 81.8507 126.37 81.9023 127.607C81.9261 128.202 82.5449 128.159 82.9376 128.274C83.1518 128.825 82.9813 129.059 82.4418 129.075C81.5056 129.103 81.0058 128.714 80.9424 127.77C80.8749 126.818 80.8948 125.862 80.867 124.91C80.8591 124.589 80.8392 124.267 80.8273 124.025C80.4584 123.684 79.6214 124.085 79.8198 123.157C80.1054 123.105 80.387 123.05 80.7758 122.978C80.8194 122.593 80.863 122.185 80.9186 121.681C81.1724 121.653 81.4382 121.626 81.7555 121.59C81.819 122.09 81.8785 122.502 81.9459 122.998Z" fill="#6DD5FA"/>
<path d="M39.4859 128.952C39.2122 128.952 38.9861 128.952 38.6251 128.952C38.5418 126.156 38.5934 123.379 38.5696 120.535C38.9385 120.515 39.1884 120.499 39.4066 120.487C39.6763 120.757 39.7199 127.469 39.4859 128.952Z" fill="#6DD5FA"/>
<path d="M94.4014 122.955C94.4014 123.32 94.4014 123.57 94.4014 123.871C94.2229 123.899 94.0682 123.919 93.9135 123.947C92.9932 124.109 92.6084 124.55 92.5965 125.486C92.5886 126.275 92.6045 127.069 92.6005 127.858C92.6005 128.183 92.5728 128.505 92.5529 128.897C92.2276 128.897 91.9539 128.897 91.6287 128.897C91.6287 126.969 91.6287 125.073 91.6287 123.145C91.827 123.122 91.9976 123.058 92.1404 123.094C92.8425 123.288 93.0051 123.292 93.6993 123.074C93.8818 123.019 94.0801 123.011 94.4014 122.955Z" fill="#6DD5FA"/>
<path d="M76.6978 128.928C76.317 128.928 76.0671 128.928 75.7498 128.928C75.7498 127.005 75.7498 125.108 75.7498 123.173C76.2059 122.982 76.5669 123.046 76.7494 123.553C77.2889 123.331 77.7926 123.121 78.4154 122.863C78.4908 123.236 78.5423 123.498 78.6058 123.803C78.3638 123.855 78.2091 123.887 78.0584 123.918C77.0667 124.133 76.7137 124.541 76.7058 125.545C76.6859 126.636 76.6978 127.719 76.6978 128.928Z" fill="#6DD5FA"/>
<path d="M185.605 122.982C186.045 123.145 186.386 123.268 186.815 123.426C187.191 123.288 187.699 123.101 188.326 122.867C188.354 123.268 188.37 123.506 188.389 123.772C188.116 123.839 187.894 123.871 187.683 123.946C186.922 124.208 186.585 124.668 186.577 125.489C186.565 126.604 186.573 127.715 186.573 128.912C186.216 128.936 185.95 128.952 185.609 128.976C185.605 126.997 185.605 125.104 185.605 122.982Z" fill="#6DD5FA"/>
<path d="M99.8121 127.901C99.8994 129.512 99.4908 130.309 98.4753 130.428C98.638 129.595 98.7927 128.786 98.9632 127.901C99.2052 127.901 99.475 127.901 99.8121 127.901Z" fill="#6DD5FA"/>
<path d="M192.134 123.371C192.134 122.387 192.118 121.61 192.15 120.833C192.154 120.69 192.348 120.555 192.455 120.416C192.586 120.531 192.828 120.646 192.832 120.765C192.852 121.511 192.84 122.261 192.784 123.006C192.776 123.105 192.475 123.185 192.134 123.371Z" fill="#6DD5FA"/>
<path d="M5.72095 121.801C5.72095 121.44 5.69714 121.079 5.73681 120.726C5.74871 120.615 5.93913 120.452 6.0502 120.448C6.16523 120.444 6.38737 120.607 6.39133 120.698C6.39927 121.48 6.37149 122.261 6.33182 123.043C6.32786 123.118 6.13349 123.261 6.06209 123.241C5.93515 123.205 5.75269 123.082 5.74475 122.979C5.70112 122.586 5.72492 122.194 5.72095 121.801Z" fill="#6DD5FA"/>
<path d="M193.713 123.193C193.713 122.372 193.693 121.563 193.729 120.754C193.737 120.619 193.975 120.492 194.209 120.262C194.53 121.313 194.415 122.178 194.288 123.038C194.276 123.106 194.161 123.185 194.082 123.213C194.002 123.245 193.899 123.209 193.713 123.193Z" fill="#6DD5FA"/>
<path d="M7.31958 123.312C7.31958 122.28 7.31958 121.352 7.31958 120.285C7.58932 120.448 7.85905 120.531 7.85905 120.622C7.87095 121.439 7.84714 122.257 7.79954 123.07C7.79557 123.145 7.55362 123.201 7.31958 123.312Z" fill="#6DD5FA"/>
<path d="M190.844 128.512C190.472 128.743 190.273 128.953 190.043 128.992C189.682 129.056 189.381 128.75 189.416 128.429C189.464 128.028 189.773 127.846 190.103 127.906C190.325 127.945 190.503 128.219 190.844 128.512Z" fill="#6DD5FA"/>
<path d="M97.5311 10.2283C97.5707 8.76457 97.6104 7.42382 97.6501 6.01562C99.1416 6.01562 100.49 6.01562 101.839 6.01562C102.374 6.01562 102.497 6.36469 102.501 6.805C102.513 7.66579 102.517 8.5226 102.529 9.38338C102.533 9.64122 102.561 9.8951 102.581 10.2362C103.553 10.2362 104.469 10.2362 105.385 10.2362C105.651 10.2362 105.921 10.2164 106.175 10.26C106.524 10.3235 106.797 10.5258 106.805 10.9146C106.825 12.1046 106.833 13.2946 106.829 14.4806C106.825 14.9805 106.492 15.1709 106.044 15.1828C105.417 15.2026 104.79 15.2026 104.159 15.2066C103.668 15.2105 103.18 15.2066 102.557 15.2066C102.541 16.0673 102.513 16.8448 102.509 17.6183C102.493 19.7366 102.486 19.4708 100.597 19.4867C99.9032 19.4906 99.209 19.4946 98.5148 19.4827C97.773 19.4668 97.6342 19.3597 97.6144 18.6259C97.5826 17.539 97.6064 16.4521 97.6064 15.2343C96.1586 15.2066 94.8257 15.1828 93.477 15.159C93.3977 14.8813 93.3025 14.6988 93.3025 14.5163C93.2906 13.362 93.2747 12.2037 93.3065 11.0494C93.3263 10.3751 93.4691 10.2481 94.1514 10.2323C95.2343 10.2124 96.3212 10.2283 97.5311 10.2283ZM94.7504 13.7349C95.0995 13.7587 95.3533 13.7865 95.6112 13.7904C96.4045 13.7984 97.1939 13.7785 97.9872 13.8063C98.7449 13.8341 98.9194 14.0086 98.9512 14.7504C98.9789 15.4089 98.9591 16.0713 98.971 16.7298C98.9789 17.1463 99.0067 17.5668 99.0226 17.9991C99.7564 17.9991 100.391 17.9991 101.129 17.9991C101.129 16.9321 101.113 15.9444 101.133 14.9567C101.157 13.8618 101.256 13.7825 102.339 13.7865C103.319 13.7904 104.294 13.7865 105.346 13.7865C105.346 13.009 105.346 12.3703 105.346 11.6405C103.973 11.6087 102.64 11.577 101.18 11.5413C101.153 10.0815 101.129 8.75268 101.101 7.41985C100.359 7.41985 99.7207 7.41985 98.9631 7.41985C98.9631 8.25684 98.9631 9.01051 98.9631 9.76023C98.9631 11.5334 99.1574 11.6127 97.1185 11.6048C96.3371 11.6008 95.5596 11.6246 94.7464 11.6325C94.7504 12.3783 94.7504 13.0011 94.7504 13.7349Z" fill="#6DD5FA"/>
</svg>
